<svg xmlns="http://www.w3.org/2000/svg" xmlns:xlink="http://www.w3.org/1999/xlink" width="500" height="500" version="1.2" viewBox="0 0 375 375"><defs><clipPath id="clip1"><path d="M 112.5 112.5 L 262.5 112.5 L 262.5 262.5 L 112.5 262.5 Z M 112.5 112.5"/></clipPath></defs><g id="surface1"><g clip-path="url(#clip1)" clip-rule="nonzero"><path style="stroke:none;fill-rule:evenodd;fill:#f44336;fill-opacity:1" d="M 187.5 262.5 C 228.9375 262.5 262.5 228.9375 262.5 187.5 C 262.5 146.0625 228.9375 112.5 187.5 112.5 C 146.0625 112.5 112.5 146.0625 112.5 187.5 C 112.5 228.9375 146.0625 262.5 187.5 262.5 Z M 187.5 262.5"/></g><path style="stroke:none;fill-rule:evenodd;fill:#fff;fill-opacity:1" d="M 222.175781 160.96875 C 223.289062 159.855469 223.289062 158.023438 222.144531 156.882812 L 218.117188 152.855469 C 216.917969 151.652344 215.144531 151.683594 214.03125 152.824219 L 187.5 179.328125 L 160.96875 152.824219 C 159.855469 151.710938 158.023438 151.710938 156.882812 152.855469 L 152.855469 156.882812 C 151.652344 158.082031 151.683594 159.855469 152.824219 160.96875 L 179.328125 187.5 L 152.824219 214.03125 C 151.710938 215.144531 151.710938 216.976562 152.855469 218.117188 L 156.882812 222.144531 C 158.082031 223.347656 159.855469 223.316406 160.96875 222.175781 L 187.5 195.671875 L 214.03125 222.175781 C 215.144531 223.289062 216.976562 223.289062 218.117188 222.144531 L 222.144531 218.117188 C 223.347656 216.917969 223.316406 215.144531 222.175781 214.03125 L 195.671875 187.5 Z M 222.175781 160.96875"/></g></svg>