<?xml version="1.0" encoding="UTF-8"?>
<svg xmlns="http://www.w3.org/2000/svg" xmlns:xlink="http://www.w3.org/1999/xlink" width="375pt" height="374.999991pt" viewBox="0 0 375 374.999991" version="1.2">
<defs>
<clipPath id="clip1">
  <path d="M 112.5 112.5 L 262.5 112.5 L 262.5 262.5 L 112.5 262.5 Z M 112.5 112.5 "/>
</clipPath>
</defs>
<g id="surface1">
<g clip-path="url(#clip1)" clip-rule="nonzero">
<path style=" stroke:none;fill-rule:nonzero;fill:rgb(1.179504%,59.609985%,61.959839%);fill-opacity:1;" d="M 184.375 137.5 L 175 137.5 L 175 115.625 C 175 114.394531 174.273438 113.28125 173.15625 112.773438 C 172.039062 112.261719 170.726562 112.476562 169.800781 113.292969 L 113.550781 163.292969 C 112.882812 163.882812 112.5 164.730469 112.5 165.625 C 112.5 166.519531 112.882812 167.367188 113.550781 167.960938 L 169.800781 217.960938 C 170.71875 218.78125 172.039062 218.980469 173.15625 218.480469 C 174.28125 217.976562 175 216.863281 175 215.632812 L 175 193.695312 L 175.914062 193.710938 C 176.648438 193.738281 177.386719 193.757812 178.125 193.757812 C 204.238281 193.757812 231.25 207.78125 231.25 231.257812 C 231.25 239.898438 225.167969 250.832031 219.519531 257.332031 C 218.53125 258.460938 218.492188 260.136719 219.425781 261.320312 C 220.03125 262.085938 220.945312 262.5 221.875 262.5 C 222.363281 262.5 222.863281 262.382812 223.320312 262.144531 C 246.386719 250.085938 262.5 225.820312 262.5 203.125 C 262.5 167.554688 226.726562 137.5 184.375 137.5 Z M 184.375 137.5 "/>
</g>
</g>
</svg>
