<?xml version="1.0" encoding="UTF-8"?>
<svg xmlns="http://www.w3.org/2000/svg" xmlns:xlink="http://www.w3.org/1999/xlink" width="375pt" height="374.999991pt" viewBox="0 0 375 374.999991" version="1.2">
<g id="surface1">
<path style=" stroke:none;fill-rule:nonzero;fill:rgb(22.749329%,74.119568%,76.858521%);fill-opacity:1;" d="M 208.429688 202.40625 L 202.40625 208.429688 L 191.457031 197.476562 L 197.476562 191.457031 L 208.429688 202.40625 "/>
<path style=" stroke:none;fill-rule:nonzero;fill:rgb(92.549133%,21.179199%,33.329773%);fill-opacity:1;" d="M 260.660156 244.242188 C 262.308594 245.902344 262.457031 248.425781 260.988281 249.894531 L 249.894531 260.988281 C 248.425781 262.457031 245.902344 262.308594 244.242188 260.660156 L 200.199219 216.609375 C 198.550781 214.957031 198.402344 212.433594 199.871094 210.964844 L 210.964844 199.871094 C 212.433594 198.402344 214.957031 198.550781 216.609375 200.199219 L 260.660156 244.242188 "/>
<path style=" stroke:none;fill-rule:nonzero;fill:rgb(18.429565%,28.62854%,48.239136%);fill-opacity:1;" d="M 189.617188 189.617188 C 175.648438 203.59375 152.996094 203.589844 139.015625 189.617188 C 125.046875 175.648438 125.046875 152.992188 139.015625 139.015625 C 152.996094 125.046875 175.648438 125.046875 189.617188 139.015625 C 203.589844 152.996094 203.589844 175.648438 189.617188 189.617188 Z M 130.925781 130.925781 C 112.476562 149.363281 112.476562 179.269531 130.925781 197.710938 C 149.363281 216.15625 179.269531 216.15625 197.710938 197.710938 C 216.15625 179.269531 216.15625 149.363281 197.710938 130.925781 C 179.269531 112.476562 149.363281 112.476562 130.925781 130.925781 "/>
</g>
</svg>
